<?xml version="1.0" encoding="UTF-8" standalone="no"?>
<!-- Created with Inkscape (http://www.inkscape.org/) -->

<svg
   width="93.005966mm"
   height="92.946045mm"
   viewBox="0 0 93.005966 92.946045"
   version="1.1"
   id="svg1"
   xml:space="preserve"
   inkscape:version="1.4.2 (f4327f4, 2025-05-13)"
   sodipodi:docname="icon.svg"
   xmlns:inkscape="http://www.inkscape.org/namespaces/inkscape"
   xmlns:sodipodi="http://sodipodi.sourceforge.net/DTD/sodipodi-0.dtd"
   xmlns="http://www.w3.org/2000/svg"
   xmlns:svg="http://www.w3.org/2000/svg"><sodipodi:namedview
     id="namedview1"
     pagecolor="#ffffff"
     bordercolor="#000000"
     borderopacity="0.25"
     inkscape:showpageshadow="2"
     inkscape:pageopacity="0.0"
     inkscape:pagecheckerboard="0"
     inkscape:deskcolor="#d1d1d1"
     inkscape:document-units="mm"
     inkscape:zoom="0.75811588"
     inkscape:cx="396.3774"
     inkscape:cy="249.96179"
     inkscape:window-width="1920"
     inkscape:window-height="1111"
     inkscape:window-x="-9"
     inkscape:window-y="-9"
     inkscape:window-maximized="1"
     inkscape:current-layer="layer1" /><defs
     id="defs1" /><g
     inkscape:label="Layer 1"
     inkscape:groupmode="layer"
     id="layer1"><g
       id="g5"
       transform="translate(-58.825791,-88.93194)"
       style="fill:#d3bc5f"><path
         style="fill:#d3bc5f;stroke-width:1.31906"
         d="m 373.76882,452.95036 c -8.6794,-16.28421 -23.74192,-29.01699 -40.42032,-34.16842 -12.27986,-3.79286 -31.0365,-3.58446 -42.49587,0.47215 -16.52696,5.85055 -30.05184,17.32757 -38.00031,32.24655 l -4.3643,8.19162 h -9.90448 c -11.33524,0 -10.9695,1.04949 -4.82671,-13.85013 5.00427,-12.13811 12.97472,-26.01052 21.81215,-37.96362 9.33106,-12.62076 30.15907,-33.59557 34.36494,-34.60713 1.59352,-0.38326 7.05234,0.2252 12.13072,1.35215 15.3793,3.41282 41.45652,4.03504 57.39736,1.36954 29.12663,-4.87032 54.99232,-16.36749 76.81695,-34.14474 4.17153,-3.39792 7.58459,-5.96734 7.58459,-5.70982 0,0.25751 -1.11394,3.70596 -2.47545,7.66322 -3.51558,10.21824 -7.36852,17.46001 -15.49311,29.12 -8.39361,12.04609 -8.81223,14.22225 -2.73585,14.22225 10.53285,0 30.15247,-14.97174 40.75759,-31.10214 l 5.44779,-8.2861 7.45829,3.76494 c 24.20191,12.21708 50.39578,35.22903 65.74512,57.75869 7.66656,11.25291 17.88821,31.05459 23.12934,44.80688 l 2.13652,5.60601 -10.21204,-0.003 -10.21202,-0.003 -3.83575,-7.34075 c -8.07822,-15.45987 -23.62838,-28.48599 -40.06679,-33.5633 -11.5447,-3.56579 -29.91806,-3.56579 -41.46276,0 -16.42037,5.07173 -33.1378,19.11423 -41.2886,34.68204 -3.75065,7.16365 -3.90133,7.27775 -8.49241,6.4309 -6.37339,-1.17562 -26.28615,-1.08972 -30.64539,0.13218 -3.31498,0.9292 -3.82921,0.46558 -7.8492,-7.0767 z"
         id="path2"
         transform="scale(0.26458333)" /><path
         style="fill:#d3bc5f;stroke-width:1.31906"
         d="m 299.42652,531.79251 c -14.12281,-4.67538 -26.02467,-15.01772 -31.78301,-27.61844 -3.21758,-7.04087 -3.73952,-9.80157 -3.67151,-19.41968 0.0938,-13.26489 2.29838,-19.98525 9.82733,-29.95727 22.33869,-29.58738 67.49673,-24.97704 83.90723,8.56638 3.28662,6.71793 3.69063,8.9801 3.70247,20.73136 0.0119,11.81216 -0.37521,13.98174 -3.70432,20.76124 -8.14977,16.59645 -24.74242,27.50125 -43.008,28.26516 -5.90591,0.247 -12.1522,-0.29653 -15.27019,-1.32875 z m 28.01165,-30.7163 c 10.68294,-6.69662 10.52575,-24.13375 -0.27776,-30.81068 -8.45556,-5.22583 -20.61381,-2.09265 -25.03173,6.45066 -3.31552,6.41151 -2.67555,16.31702 1.36439,21.11821 5.48248,6.51556 16.37092,7.98969 23.9451,3.24181 z"
         id="path3"
         transform="scale(0.26458333)" /><path
         style="fill:#d3bc5f;stroke-width:1.31906"
         d="m 468.26614,531.79138 c -22.08895,-7.30783 -35.10164,-24.99578 -35.10164,-47.71312 0,-29.0221 24.11497,-51.17312 53.46377,-49.10962 12.19875,0.85768 20.25895,4.53407 29.71473,13.55336 11.20786,10.69048 15.238,20.09878 15.238,35.57286 0,10.12009 -0.52155,12.9843 -3.53515,19.414 -4.90129,10.45721 -14.20665,19.97039 -24.48229,25.02907 -7.05436,3.47285 -10.34692,4.25799 -19.26487,4.59388 -6.48425,0.24423 -12.85186,-0.28815 -16.03255,-1.34043 z m 22.04511,-33.66492 c 4.50444,-4.82899 4.99561,-6.0564 4.99561,-12.48358 0,-7.95002 -2.74253,-12.70111 -9.28438,-16.08403 -10.37768,-5.36651 -23.55032,1.45049 -25.7812,13.34209 -1.11675,5.95278 0.0404,10.01733 4.28948,15.06708 4.54343,5.39956 7.66723,6.66391 14.89825,6.03003 4.85292,-0.42541 6.76388,-1.45649 10.88224,-5.87159 z"
         id="path4"
         transform="scale(0.26458333)" /><path
         style="fill:#d3bc5f;stroke-width:1.31906"
         d="M 375.09107,686.55943 C 299.40033,674.58884 239.84119,618.75047 224.98019,545.8263 c -2.10014,-10.30555 -2.70136,-18.09504 -2.64264,-34.23839 0.0418,-11.49377 0.49706,-23.27206 1.01167,-26.17399 l 0.93566,-5.27624 h 9.87057 9.87057 l 0.87708,10.55248 c 2.29884,27.6582 19.84972,49.4614 47.2433,58.68963 11.79388,3.97307 30.40251,4.00014 42.08558,0.0612 24.76,-8.34778 42.76557,-30.225 46.61544,-56.63894 1.35377,-9.2882 2.11117,-11.33972 4.84869,-13.13342 4.21449,-2.76144 17.87736,-2.86377 23.21235,-0.17386 3.5783,1.80418 4.04555,2.79482 4.88008,10.34633 3.14504,28.45919 20.728,50.94978 46.55007,59.54281 11.87564,3.95196 35.75572,3.38129 47.13628,-1.12643 24.13336,-9.559 41.29263,-32.71314 42.90683,-57.8971 l 0.6975,-10.88224 h 10.30678 10.30677 l 0.99862,4.94647 c 2.05519,10.18013 1.2336,47.84944 -1.30184,59.68745 -13.58807,63.44315 -58.58547,114.97208 -117.39943,134.4404 -6.65785,2.20384 -16.55699,4.97239 -21.99811,6.15231 -11.49331,2.49239 -45.79837,3.61053 -56.90094,1.85465 z m 46.71211,-70.65285 c 16.42694,-4.25664 34.75507,-16.51224 41.23834,-27.57511 3.19946,-5.45946 3.28144,-6.02921 1.39298,-9.68109 -4.24521,-8.20934 -9.41682,-7.421 -20.67375,3.15143 -13.63587,12.80672 -26.34268,17.66776 -46.25511,17.6951 -18.72382,0.0257 -35.55438,-6.85218 -50.12984,-20.48582 -3.45723,-3.23384 -7.41842,-5.87971 -8.80263,-5.87971 -4.48847,0 -9.46781,5.05626 -9.46781,9.61407 0,3.41364 1.68993,5.78787 9.56318,13.43559 10.09421,9.80504 19.62005,15.32737 33.30626,19.30834 10.63202,3.09258 38.60007,3.32674 49.82838,0.4172 z"
         id="path5"
         transform="scale(0.26458333)" /></g></g></svg>
